:SAMPLES-PER-SECOND 30
:FULLY-SPECIFIED
:DEGREES
384
root  -19.9918 33.8494 18.4407 -7.55144 -85.2408 17.8928
RightUpLeg  -27.2036 -14.8255 -4.35997
RightLeg  56.4858 1.24844 1.5711
RightFoot  1.7298 0.00374557 0.245129
RightToes  -32.3277 -0.160274 -0.267814
Spine  1.3992 0.287406 -1.64481
Spine1  2.69467 0.758612 -2.6722
HEad  -78.4374 -22.4493 19.0196
LeftShoulder1  -1.94126e-019 -3.10601e-018 -2.51263e-017
LeftArm  -28.8524 22.0131 -70.2206
LeftForeArm  18.5927 -20.3915 -3.60726
LeftHand  -0.544943 1.28302 15.367
RightShoulder  -4.96962e-017 0 -2.36833e-017
RightArm  -5.06042 -14.7345 71.7102
RightForeArm  52.5183 46.0022 7.94693
RightHand  -0.454512 0.445442 -9.12312
LeftUpLeg  -27.4073 1.96099 0.531734
LeftLeg  28.6289 7.43651 3.4412
LeftFoot  1.79027 -0.00412838 0.425779
LeftToes  -16.3336 1.70063e-006 7.6642e-008
385
root  -20.276 33.9348 18.5293 -26.6874 -88.5237 37.4566
RightUpLeg  -28.1537 -17.7497 -3.21438
RightLeg  49.7707 -1.10358 -1.19382
RightFoot  -0.272503 -0.00136574 0.210153
RightToes  -29.8114 -0.142625 -0.250653
Spine  1.37574 0.149115 -1.46958
Spine1  2.65628 0.472718 -2.34089
HEad  -79.3128 -21.4854 19.6877
LeftShoulder1  -1.94126e-019 -3.10601e-018 -2.51263e-017
LeftArm  -29.2699 20.6255 -67.4381
LeftForeArm  19.7155 -26.2746 -4.56928
LeftHand  -0.577529 0.891659 14.9041
RightShoulder  -4.96962e-017 0 -2.36833e-017
RightArm  -8.36404 -15.3645 69.8204
RightForeArm  53.2395 45.7576 7.82256
RightHand  -0.393873 -0.513899 -9.37333
LeftUpLeg  -26.5692 3.98968 0.79608
LeftLeg  28.1727 8.69005 3.93305
LeftFoot  1.03474 -0.0015816 0.336716
LeftToes  -16.5005 1.70063e-006 7.6642e-008
386
root  -20.4619 33.9261 18.5183 -156.852 -87.5086 168.251
RightUpLeg  -29.0361 -20.2845 -1.52626
RightLeg  41.2481 -2.35656 -1.83764
RightFoot  -1.31801 -0.00382265 0.271896
RightToes  -26.2465 -0.118947 -0.225051
Spine  1.36112 0.187227 -1.34242
Spine1  2.63042 0.539926 -2.09867
HEad  -80.6168 -20.8112 20.1568
LeftShoulder1  -1.94126e-019 -3.10601e-018 -2.51263e-017
LeftArm  -29.389 19.1864 -64.6484
LeftForeArm  21.8508 -31.9283 -5.75201
LeftHand  -0.591699 1.04583 15.7962
RightShoulder  -4.96962e-017 0 -2.36833e-017
RightArm  -12.1617 -16.0455 68.2824
RightForeArm  52.9487 46.065 7.94056
RightHand  -0.35101 -1.29697 -9.85714
LeftUpLeg  -26.4925 6.51387 0.917809
LeftLeg  28.5614 9.63768 4.4353
LeftFoot  0.131916 -2.44343e-005 0.182992
LeftToes  -17.1263 1.70063e-006 7.6642e-008
387
root  -20.6409 33.8578 18.4798 -164.472 -83.9715 176.526
RightUpLeg  -29.7449 -23.2738 0.726364
RightLeg  32.5349 -3.01937 -1.67466
RightFoot  -1.6115 -0.00463902 0.29332
RightToes  -22.2999 -0.0946475 -0.195052
Spine  1.36795 0.254707 -1.29394
Spine1  2.64609 0.668195 -2.01318
HEad  -81.5451 -20.3746 20.2037
LeftShoulder1  -1.94126e-019 -3.10601e-018 -2.51263e-017
LeftArm  -30.1871 17.8158 -62.0381
LeftForeArm  21.487 -36.8068 -7.05673
LeftHand  -0.589458 1.31909 16.7664
RightShoulder  -4.96962e-017 0 -2.36833e-017
RightArm  -16.2472 -16.6316 67.3615
RightForeArm  51.7875 46.2866 8.08256
RightHand  -0.313565 -2.04603 -10.6643
LeftUpLeg  -26.9028 8.97 0.769151
LeftLeg  29.8476 10.5525 5.13711
LeftFoot  -0.920166 -0.00159377 -0.0369597
LeftToes  -17.0729 1.70063e-006 7.6642e-008
388
root  -20.7462 33.7756 18.3944 -166.115 -80.3427 179.196
RightUpLeg  -32.1065 -25.5308 3.47276
RightLeg  30.3447 -3.1857 -1.6082
RightFoot  -1.86271 -0.00536637 0.30729
RightToes  -13.1307 -0.046564 -0.11943
Spine  1.25533 0.364101 -1.18334
Spine1  2.42801 0.882499 -1.80404
HEad  -82.1315 -19.9058 19.5349
LeftShoulder1  -1.94126e-019 -3.10601e-018 -2.51263e-017
LeftArm  -31.0742 16.9943 -60.039
LeftForeArm  19.4216 -41.1167 -8.48788
LeftHand  -0.57517 1.6533 17.7911
RightShoulder  -4.96962e-017 0 -2.36833e-017
RightArm  -21.0017 -17.2138 67.1881
RightForeArm  50.739 46.4416 8.19842
RightHand  -0.315788 -2.24353 -11.3948
LeftUpLeg  -27.9639 11.8983 0.579486
LeftLeg  31.4113 11.098 5.77306
LeftFoot  -1.80314 -0.0064522 -0.248476
LeftToes  -17.5033 1.70063e-006 7.6642e-008
389
root  -20.8831 33.7658 18.2816 -166.702 -76.6545 -179.648
RightUpLeg  -33.0183 -23.5201 3.81277
RightLeg  30.8402 -2.10088 -1.08801
RightFoot  -1.27007 -0.000262436 0.233383
RightToes  -18.1441 -0.0713564 -0.161735
Spine  1.41899 0.39076 -0.974163
Spine1  2.75428 0.946955 -1.41842
HEad  -82.7456 -18.7022 18.8364
LeftShoulder1  -1.94126e-019 -3.10601e-018 -2.51263e-017
LeftArm  -33.311 16.1702 -59.0658
LeftForeArm  16.4585 -43.9086 -9.64095
LeftHand  -0.521627 1.92739 17.3828
RightShoulder  -4.96962e-017 0 -2.36833e-017
RightArm  -25.1911 -16.9292 67.587
RightForeArm  49.0683 46.0943 8.17598
RightHand  -0.286065 -2.61 -11.5996
LeftUpLeg  -27.9164 14.431 0.514718
LeftLeg  31.9449 12.0944 6.42204
LeftFoot  -2.24811 -0.0109875 -0.398445
LeftToes  -17.9932 1.70063e-006 7.6642e-008
390
root  -21.0685 33.7924 18.1188 -167.521 -72.6685 -178.711
RightUpLeg  -33.4505 -22.1131 4.35167
RightLeg  31.0657 -0.521493 -0.281235
RightFoot  -0.821148 0.00341147 0.176961
RightToes  -18.1541 -0.0714095 -0.161818
Spine  1.63627 0.277113 -0.6387
Spine1  3.1933 0.725095 -0.78062
HEad  -82.3368 -17.0657 17.3522
LeftShoulder1  -1.94126e-019 -3.10601e-018 -2.51263e-017
LeftArm  -35.5591 16.4469 -59.1028
LeftForeArm  15.158 -45.7208 -10.4111
LeftHand  -0.479417 2.17524 17.1762
RightShoulder  -4.96962e-017 0 -2.36833e-017
RightArm  -28.272 -16.2053 68.5119
RightForeArm  47.1522 45.0841 7.949
RightHand  -0.201183 -3.71759 -13.1636
LeftUpLeg  -26.9465 16.5571 0.759374
LeftLeg  32.0422 13.8431 7.35461
LeftFoot  -2.3121 -0.013361 -0.500552
LeftToes  -19.1775 1.70063e-006 7.6642e-008
391
root  -21.2742 33.8438 17.8999 -168.032 -68.9702 -178.146
RightUpLeg  -33.9735 -23.8224 6.26556
RightLeg  30.7394 0.0330587 0.00609233
RightFoot  -0.69571 0.00412206 0.161554
RightToes  -17.2443 -0.0666356 -0.154305
Spine  1.7167 0.0741953 -0.235564
Spine1  3.36983 0.30909 0.00682065
HEad  -81.2646 -15.6443 16.2147
LeftShoulder1  -1.94126e-019 -3.10601e-018 -2.51263e-017
LeftArm  -35.9628 17.416 -59.8114
LeftForeArm  15.7109 -46.78 -10.7943
LeftHand  -0.452207 2.4332 17.5835
RightShoulder  -4.96962e-017 0 -2.36833e-017
RightArm  -30.2811 -16.4823 69.5836
RightForeArm  44.7823 44.4569 7.88651
RightHand  -0.121786 -4.5214 -14.5159
LeftUpLeg  -25.8267 17.81 1.16391
LeftLeg  32.2334 16.1594 8.60642
LeftFoot  -2.02807 -0.0121098 -0.522605
LeftToes  -19.747 1.70063e-006 7.6642e-008
392
root  -21.463 33.8926 17.5881 -168.53 -65.2016 -177.272
RightUpLeg  -34.4555 -26.8237 9.54378
RightLeg  29.0727 -0.638223 -0.311872
RightFoot  -0.914395 0.0030707 0.171616
RightToes  -14.8014 -0.0544134 -0.133767
Spine  1.72508 0.0510453 0.110792
Spine1  3.40461 0.252925 0.682233
HEad  -80.0077 -14.7421 16.1741
LeftShoulder1  -1.94126e-019 -3.10601e-018 -2.51263e-017
LeftArm  -34.6372 18.4597 -60.6669
LeftForeArm  17.3364 -47.8444 -11.1206
LeftHand  -0.420668 2.6096 17.3634
RightShoulder  -4.96962e-017 0 -2.36833e-017
RightArm  -31.5398 -17.8277 70.9872
RightForeArm  42.4564 43.7544 7.79906
RightHand  -0.068054 -4.97724 -15.2493
LeftUpLeg  -25.1114 19.5642 1.79192
LeftLeg  32.7609 17.9402 9.71547
LeftFoot  -1.37794 -0.00633382 -0.365145
LeftToes  -21.6038 1.70063e-006 7.6642e-008
393
root  -21.5978 33.8984 17.2702 -168.459 -61.0663 -176.831
RightUpLeg  -34.8052 -27.3178 12.0722
RightLeg  27.5781 -1.35195 -0.606331
RightFoot  -1.48156 0.001002 0.198127
RightToes  -8.88379 -0.0285218 -0.0820115
Spine  1.67992 -0.0265483 0.463208
Spine1  3.32949 0.0692644 1.40491
HEad  -78.7003 -13.4056 15.9912
LeftShoulder1  -1.94126e-019 -3.10601e-018 -2.51263e-017
LeftArm  -31.7008 20.2617 -61.495
LeftForeArm  18.383 -48.5494 -11.3447
LeftHand  -0.474526 1.99547 16.1124
RightShoulder  -4.96962e-017 0 -2.36833e-017
RightArm  -31.6659 -18.7385 72.2235
RightForeArm  39.9083 41.1343 7.14428
RightHand  -0.114176 -4.64069 -15.7373
LeftUpLeg  -24.7854 21.8166 2.2837
LeftLeg  33.8825 19.1663 10.8132
LeftFoot  -0.521844 -0.00102537 -0.0636288
LeftToes  -24.7044 1.70063e-006 7.6642e-008
394
root  -21.7647 33.8557 16.9409 -167.378 -55.8529 -177.251
RightUpLeg  -33.6982 -20.6698 10.6102
RightLeg  26.6737 -1.82852 -0.782204
RightFoot  -1.71316 -0.00031779 0.217468
RightToes  -10.2546 -0.0340415 -0.0942342
Spine  1.58241 0.0337513 0.463606
Spine1  3.1416 0.159577 1.45341
HEad  -77.6765 -11.3807 15.7829
LeftShoulder1  -1.94126e-019 -3.10601e-018 -2.51263e-017
LeftArm  -27.9847 22.7381 -61.8855
LeftForeArm  20.1762 -49.2863 -11.5312
LeftHand  -0.520514 1.33286 14.8523
RightShoulder  -4.96962e-017 0 -2.36833e-017
RightArm  -31.0378 -18.0326 73.5668
RightForeArm  37.1721 32.9552 5.12322
RightHand  -0.295493 -3.39083 -16.6359
LeftUpLeg  -24.5398 25.339 2.12457
LeftLeg  35.1669 20.017 11.8349
LeftFoot  0.474714 -0.000780198 0.349976
LeftToes  -28.2587 1.70063e-006 7.6642e-008
395
root  -21.963 33.8102 16.5748 -166.425 -51.2902 -178.342
RightUpLeg  -32.662 -14.7438 8.72775
RightLeg  26.7238 -3.01216 -1.28671
RightFoot  -2.46741 -0.00591264 0.30304
RightToes  -11.427 -0.0389932 -0.10458
Spine  1.79594 -0.298398 0.392395
Spine1  3.56373 -0.526052 1.3231
HEad  -76.8568 -8.93154 15.0325
LeftShoulder1  -1.94126e-019 -3.10601e-018 -2.51263e-017
LeftArm  -24.9166 24.5044 -62.9135
LeftForeArm  23.4907 -48.5422 -10.9533
LeftHand  -0.586721 0.29716 13.4241
RightShoulder  -4.96962e-017 0 -2.36833e-017
RightArm  -31.1415 -15.3339 74.8272
RightForeArm  36.9949 20.5142 2.47487
RightHand  -0.283398 -3.34334 -15.5484
LeftUpLeg  -24.0047 27.1002 1.95312
LeftLeg  37.4829 21.3356 13.6837
LeftFoot  2.70348 -0.0296418 1.41774
LeftToes  -33.4719 1.70063e-006 7.6642e-008
